<?xml version="1.0" encoding="UTF-8" standalone="no"?>
<svg
   data-name="Livello 1"
   id="Livello_1"
   viewBox="0 0 128 128"
   version="1.1"
   sodipodi:docname="close-white.svg"
   inkscape:version="1.1.1 (3bf5ae0d25, 2021-09-20)"
   xmlns:inkscape="http://www.inkscape.org/namespaces/inkscape"
   xmlns:sodipodi="http://sodipodi.sourceforge.net/DTD/sodipodi-0.dtd"
   xmlns="http://www.w3.org/2000/svg"
   xmlns:svg="http://www.w3.org/2000/svg">
  <defs
     id="defs11" />
  <sodipodi:namedview
     id="namedview9"
     pagecolor="#ffffff"
     bordercolor="#666666"
     borderopacity="1.0"
     inkscape:pageshadow="2"
     inkscape:pageopacity="0.0"
     inkscape:pagecheckerboard="0"
     showgrid="false"
     inkscape:zoom="6.0625"
     inkscape:cx="63.917526"
     inkscape:cy="64"
     inkscape:window-width="1920"
     inkscape:window-height="1011"
     inkscape:window-x="0"
     inkscape:window-y="0"
     inkscape:window-maximized="1"
     inkscape:current-layer="Livello_1" />
  <title
     id="title2" />
  <path
     d="M64,0a64,64,0,1,0,64,64A64.07,64.07,0,0,0,64,0Zm0,122a58,58,0,1,1,58-58A58.07,58.07,0,0,1,64,122Z"
     id="path4"
     style="fill:#fffffe;fill-opacity:1" />
  <path
     d="M92.12,35.79a3,3,0,0,0-4.24,0L64,59.75l-23.87-24A3,3,0,0,0,35.88,40L59.76,64,35.88,88a3,3,0,0,0,4.25,4.24L64,68.25l23.88,24A3,3,0,0,0,92.13,88L68.24,64,92.13,40A3,3,0,0,0,92.12,35.79Z"
     id="path6"
     style="fill:#ffffff;fill-opacity:1" />
</svg>
